<svg width="126" height="120" viewBox="0 0 126 120" fill="none" xmlns="http://www.w3.org/2000/svg">
<g style="mix-blend-mode:overlay">
<path fill-rule="evenodd" clip-rule="evenodd" d="M24.6611 101.328L44.0365 90.8835C44.8503 90.3987 46.4778 88.7313 46.4778 85.9393V80.4135C44.5451 77.6021 40.4356 70.9324 39.4591 66.7444C36.0438 63.9235 36.0793 58.0162 36.0995 54.6379C36.101 54.394 36.1024 54.1632 36.1024 53.9478C36.1024 52.0089 36.5296 48.0148 38.2385 47.5495V34.7529C38.2385 11.1954 87.6741 10.9046 87.6741 34.7529V47.5494C88.2844 47.9372 89.5051 49.4108 89.5051 52.2028V61.8002C89.0982 63.0605 87.6131 65.93 84.9277 67.326C83.9512 70.816 79.6383 77.5051 77.6039 80.4135V87.3934C77.6039 88.169 78.0311 89.9528 79.74 90.8834C81.2591 91.7107 93.4258 97.8255 100.754 101.489C112.947 91.3707 120.607 76.4803 120.607 60C120.607 29.8371 94.9455 5 62.8037 5C30.662 5 5 29.8371 5 60C5 76.3934 12.5802 91.2137 24.6611 101.328ZM125.607 60C125.607 93.1371 97.4893 120 62.8037 120C28.1182 120 0 93.1371 0 60C0 26.8629 28.1182 0 62.8037 0C97.4893 0 125.607 26.8629 125.607 60Z" fill="white"/>
</g>
</svg>
