<svg width="17" height="15" viewBox="0 0 17 15" fill="none" xmlns="http://www.w3.org/2000/svg">
<g style="mix-blend-mode:overlay" clip-path="url(#clip0_186_43)">
<g style="mix-blend-mode:overlay">
<path fill-rule="evenodd" clip-rule="evenodd" d="M16.5566 1.66667C16.5566 0.746067 15.7757 0 14.8121 0H2.60026C1.63664 0 0.855713 0.746067 0.855713 1.66667V13.3333C0.855713 14.2539 1.63664 15 2.60026 15H14.8121C15.7757 15 16.5566 14.2539 16.5566 13.3333V1.66667ZM4.01771 11.6667L4.69503 8.93402C4.69503 8.93402 8.72864 5.11429 10.5598 3.33333C12.362 2.00184 14.3419 4.17696 13.1767 5.62502C11.7769 7.06475 7.28876 11.25 7.28876 11.25C7.28876 11.25 5.06064 11.9875 4.45384 12.0834C3.84702 12.1792 4.01771 11.6667 4.01771 11.6667Z" fill="white"/>
</g>
</g>
<defs>
<clipPath id="clip0_186_43">
<rect width="15.7009" height="15" fill="white" transform="translate(0.855713)"/>
</clipPath>
</defs>
</svg>
