<svg width="26" height="22" viewBox="0 0 26 22" fill="none" xmlns="http://www.w3.org/2000/svg">
<path fill-rule="evenodd" clip-rule="evenodd" d="M2.65018 0H1.52941C1.12379 0 0.734775 0.158426 0.447954 0.440426C0.161134 0.722425 0 1.1049 0 1.50371C0 1.90252 0.161134 2.28499 0.447954 2.56699C0.734775 2.84899 1.12379 3.00741 1.52941 3.00741H2.65018V0ZM2.65018 9.02224H1.52941C1.12379 9.02224 0.734775 9.18067 0.447954 9.46267C0.161134 9.74467 0 10.1271 0 10.526C0 10.9248 0.161134 11.3072 0.447954 11.5892C0.734775 11.8712 1.12379 12.0297 1.52941 12.0297H2.65018V9.02224ZM4.56399 12.0297V9.02224H26C25.9997 9.18213 25.9982 10.1603 25.9982 10.526V11.5892C25.9982 11.8712 26 12.0297 26 12.0297H4.56399ZM2.65018 18.0445H1.52941C1.12379 18.0445 0.734775 18.2029 0.447954 18.4849C0.161134 18.7669 0 19.1494 0 19.5482C0 19.947 0.161134 20.3295 0.447954 20.6115C0.734775 20.8935 1.12379 21.0519 1.52941 21.0519H2.65018V18.0445ZM4.56399 21.0519V18.0445H26C26 18.0445 25.9982 18.2029 25.9982 18.4849V19.5482V20.6115C25.9982 20.8935 26 21.0519 26 21.0519H4.56399ZM26 9.02224H26V9C26 9 26 9.00777 26 9.02224ZM4.56399 3.00741V0H26C26 0 25.9982 0.158426 25.9982 0.440426C25.9982 0.569239 25.9986 0.719017 25.999 0.88174C25.9995 1.07525 26 1.28707 26 1.50371C26 1.72035 25.9995 1.93216 25.999 2.12567C25.9986 2.2884 25.9982 2.43818 25.9982 2.56699C25.9982 2.84899 26 3.00741 26 3.00741H4.56399Z" fill="black"/>
</svg>
