<svg width="56" height="74" viewBox="0 0 56 74" fill="none" xmlns="http://www.w3.org/2000/svg">
<g filter="url(#filter0_d_112_9)">
<path fill-rule="evenodd" clip-rule="evenodd" d="M25.863 21.1835C26.9333 20.9386 28.3092 20.9388 29.3594 21.1841C29.7454 21.2742 29.9913 21.6195 30.0051 22.0156C30.024 22.5601 30.0532 23.424 30.0863 24.5H25.1557C25.1767 23.4354 25.1951 22.5782 25.2073 22.0328C25.2163 21.6278 25.468 21.2738 25.863 21.1835ZM25.1364 25.5C25.0196 31.7032 24.8634 42.7971 25.2222 43.5822C25.7222 44.6761 29.2222 45.1761 29.9853 43.5822C30.5303 42.4437 30.2952 31.6028 30.1164 25.5H25.1364Z" fill="#EF7115"/>
</g>
<defs>
<filter id="filter0_d_112_9" x="0" y="-1.52588e-05" width="55.3237" height="73.5987" filterUnits="userSpaceOnUse" color-interpolation-filters="sRGB">
<feFlood flood-opacity="0" result="BackgroundImageFix"/>
<feColorMatrix in="SourceAlpha" type="matrix" values="0 0 0 0 0 0 0 0 0 0 0 0 0 0 0 0 0 0 127 0" result="hardAlpha"/>
<feOffset dy="4"/>
<feGaussianBlur stdDeviation="12.5"/>
<feComposite in2="hardAlpha" operator="out"/>
<feColorMatrix type="matrix" values="0 0 0 0 0.937255 0 0 0 0 0.443137 0 0 0 0 0.0823529 0 0 0 1 0"/>
<feBlend mode="normal" in2="BackgroundImageFix" result="effect1_dropShadow_112_9"/>
<feBlend mode="normal" in="SourceGraphic" in2="effect1_dropShadow_112_9" result="shape"/>
</filter>
</defs>
</svg>
