<svg width="41" height="46" viewBox="0 0 41 46" fill="none" xmlns="http://www.w3.org/2000/svg">
<g filter="url(#filter0_d_112_23)">
<path fill-rule="evenodd" clip-rule="evenodd" d="M25.6393 8.62917C26.6671 9.01555 27.8145 9.77489 28.555 10.5589C28.8272 10.847 28.8418 11.2706 28.6347 11.6086C28.3501 12.0732 27.8977 12.8098 27.3317 13.7254L23.2195 11.0049C23.8244 10.1286 24.3128 9.42394 24.6238 8.97576C24.8548 8.64292 25.2601 8.4866 25.6393 8.62917ZM22.6516 11.8283C19.1315 16.9373 12.8801 26.1035 12.7462 26.9562C12.5596 28.1445 15.2027 30.4926 16.7187 29.5843C17.8014 28.9355 23.5868 19.7645 26.805 14.576L22.6516 11.8283Z" fill="#EF7115"/>
</g>
<defs>
<filter id="filter0_d_112_23" x="0.736877" y="0.57637" width="40.0394" height="45.2121" filterUnits="userSpaceOnUse" color-interpolation-filters="sRGB">
<feFlood flood-opacity="0" result="BackgroundImageFix"/>
<feColorMatrix in="SourceAlpha" type="matrix" values="0 0 0 0 0 0 0 0 0 0 0 0 0 0 0 0 0 0 127 0" result="hardAlpha"/>
<feOffset dy="4"/>
<feGaussianBlur stdDeviation="6"/>
<feComposite in2="hardAlpha" operator="out"/>
<feColorMatrix type="matrix" values="0 0 0 0 1 0 0 0 0 0.422018 0 0 0 0 0 0 0 0 1 0"/>
<feBlend mode="normal" in2="BackgroundImageFix" result="effect1_dropShadow_112_23"/>
<feBlend mode="normal" in="SourceGraphic" in2="effect1_dropShadow_112_23" result="shape"/>
</filter>
</defs>
</svg>
