<svg width="37" height="37" viewBox="0 0 37 37" fill="none" xmlns="http://www.w3.org/2000/svg">
<g filter="url(#filter0_d_481_103)">
<path d="M17.383 8C14.4164 8 12 10.3941 12 13.3333C12 16.2725 14.4164 18.6667 17.383 18.6667C18.6731 18.6667 19.8578 18.2128 20.7863 17.4594L24.0004 20.6437C24.05 20.6949 24.1094 20.7358 24.1751 20.7639C24.2409 20.7921 24.3116 20.807 24.3832 20.8077C24.4548 20.8084 24.5259 20.795 24.5922 20.7682C24.6585 20.7413 24.7187 20.7017 24.7694 20.6515C24.82 20.6013 24.86 20.5416 24.8871 20.4759C24.9142 20.4103 24.9278 20.3399 24.927 20.2689C24.9263 20.198 24.9113 20.1279 24.8829 20.0627C24.8545 19.9976 24.8132 19.9387 24.7615 19.8896L21.5475 16.7052C22.3079 15.7853 22.766 14.6115 22.766 13.3333C22.766 10.3941 20.3496 8 17.383 8ZM17.383 9.06667C19.7678 9.06667 21.6894 10.9706 21.6894 13.3333C21.6894 15.6961 19.7678 17.6 17.383 17.6C14.9983 17.6 13.0766 15.6961 13.0766 13.3333C13.0766 10.9706 14.9983 9.06667 17.383 9.06667Z" fill="#EF7115"/>
</g>
<defs>
<filter id="filter0_d_481_103" x="0" y="0" width="36.927" height="36.8077" filterUnits="userSpaceOnUse" color-interpolation-filters="sRGB">
<feFlood flood-opacity="0" result="BackgroundImageFix"/>
<feColorMatrix in="SourceAlpha" type="matrix" values="0 0 0 0 0 0 0 0 0 0 0 0 0 0 0 0 0 0 127 0" result="hardAlpha"/>
<feOffset dy="4"/>
<feGaussianBlur stdDeviation="6"/>
<feComposite in2="hardAlpha" operator="out"/>
<feColorMatrix type="matrix" values="0 0 0 0 1 0 0 0 0 0.422018 0 0 0 0 0 0 0 0 1 0"/>
<feBlend mode="normal" in2="BackgroundImageFix" result="effect1_dropShadow_481_103"/>
<feBlend mode="normal" in="SourceGraphic" in2="effect1_dropShadow_481_103" result="shape"/>
</filter>
</defs>
</svg>
